<svg width="378" height="652" viewBox="0 0 378 652" fill="none" xmlns="http://www.w3.org/2000/svg">
<path d="M19 376.771L0.5 357.797V343.185L19 361.211V376.771Z" stroke="#67C565"/>
<path d="M60.5 376.771L42 357.797V343.185L60.5 361.211V376.771Z" stroke="#67C565"/>
<path d="M102 376.771L83.5 357.797V343.185L102 361.211V376.771Z" stroke="#67C565"/>
<path d="M143.5 376.771L125 357.797V343.185L143.5 361.211V376.771Z" stroke="#67C565"/>
<path d="M19 437.771L0.5 418.797V404.185L19 422.211V437.771Z" stroke="#67C565"/>
<path d="M60.5 437.771L42 418.797V404.185L60.5 422.211V437.771Z" stroke="#67C565"/>
<path d="M102 437.771L83.5 418.797V404.185L102 422.211V437.771Z" stroke="#67C565"/>
<path d="M143.5 437.771L125 418.797V404.185L143.5 422.211V437.771Z" stroke="#67C565"/>
<path d="M19 498.771L0.5 479.797V465.185L19 483.211V498.771Z" stroke="#67C565"/>
<path d="M60.5 498.771L42 479.797V465.185L60.5 483.211V498.771Z" stroke="#67C565"/>
<path d="M102 498.771L83.5 479.797V465.185L102 483.211V498.771Z" stroke="#67C565"/>
<path d="M143.5 498.771L125 479.797V465.185L143.5 483.211V498.771Z" stroke="#67C565"/>
<path d="M19 559.771L0.5 540.797V526.185L19 544.211V559.771Z" stroke="#67C565"/>
<path d="M60.5 559.771L42 540.797V526.185L60.5 544.211V559.771Z" stroke="#67C565"/>
<path d="M102 559.771L83.5 540.797V526.185L102 544.211V559.771Z" stroke="#67C565"/>
<path d="M143.5 559.771L125 540.797V526.185L143.5 544.211V559.771Z" stroke="#67C565"/>
<path d="M19 620.771L0.5 601.797V587.185L19 605.211V620.771Z" stroke="#67C565"/>
<path d="M60.5 620.771L42 601.797V587.185L60.5 605.211V620.771Z" stroke="#67C565"/>
<path d="M102 620.771L83.5 601.797V587.185L102 605.211V620.771Z" stroke="#67C565"/>
<path d="M143.5 620.771L125 601.797V587.185L143.5 605.211V620.771Z" stroke="#67C565"/>
<path d="M145 406.319L163.5 387.344V372.733L145 390.759V406.319Z" stroke="#67C565"/>
<path d="M103.5 406.319L122 387.344V372.733L103.5 390.759V406.319Z" stroke="#67C565"/>
<path d="M62 406.319L80.5 387.344V372.733L62 390.759V406.319Z" stroke="#67C565"/>
<path d="M20.5 406.319L39 387.344V372.733L20.5 390.759V406.319Z" stroke="#67C565"/>
<path d="M145 467.319L163.5 448.344V433.733L145 451.759V467.319Z" stroke="#67C565"/>
<path d="M103.5 467.319L122 448.344V433.733L103.5 451.759V467.319Z" stroke="#67C565"/>
<path d="M62 467.319L80.5 448.344V433.733L62 451.759V467.319Z" stroke="#67C565"/>
<path d="M20.5 467.319L39 448.344V433.733L20.5 451.759V467.319Z" stroke="#67C565"/>
<path d="M145 528.319L163.5 509.344V494.733L145 512.759V528.319Z" stroke="#67C565"/>
<path d="M103.5 528.319L122 509.344V494.733L103.5 512.759V528.319Z" stroke="#67C565"/>
<path d="M62 528.319L80.5 509.344V494.733L62 512.759V528.319Z" stroke="#67C565"/>
<path d="M20.5 528.319L39 509.344V494.733L20.5 512.759V528.319Z" stroke="#67C565"/>
<path d="M145 589.319L163.5 570.344V555.733L145 573.759V589.319Z" stroke="#67C565"/>
<path d="M103.5 589.319L122 570.344V555.733L103.5 573.759V589.319Z" stroke="#67C565"/>
<path d="M62 589.319L80.5 570.344V555.733L62 573.759V589.319Z" stroke="#67C565"/>
<path d="M20.5 589.319L39 570.344V555.733L20.5 573.759V589.319Z" stroke="#67C565"/>
<path d="M145 650.319L163.5 631.344V616.733L145 634.759V650.319Z" stroke="#67C565"/>
<path d="M103.5 650.319L122 631.344V616.733L103.5 634.759V650.319Z" stroke="#67C565"/>
<path d="M62 650.319L80.5 631.344V616.733L62 634.759V650.319Z" stroke="#67C565"/>
<path d="M20.5 650.319L39 631.344V616.733L20.5 634.759V650.319Z" stroke="#67C565"/>
<path d="M233 34.771L214.5 15.7966V1.18528L233 19.2109V34.771Z" stroke="#145CC5"/>
<path d="M274.5 34.771L256 15.7966V1.18528L274.5 19.2109V34.771Z" stroke="#145CC5"/>
<path d="M316 34.771L297.5 15.7966V1.18528L316 19.2109V34.771Z" stroke="#145CC5"/>
<path d="M357.5 34.771L339 15.7966V1.18528L357.5 19.2109V34.771Z" stroke="#145CC5"/>
<path d="M233 95.771L214.5 76.7966V62.1853L233 80.2109V95.771Z" stroke="#145CC5"/>
<path d="M274.5 95.771L256 76.7966V62.1853L274.5 80.2109V95.771Z" stroke="#145CC5"/>
<path d="M316 95.771L297.5 76.7966V62.1853L316 80.2109V95.771Z" stroke="#145CC5"/>
<path d="M357.5 95.771L339 76.7966V62.1853L357.5 80.2109V95.771Z" stroke="#145CC5"/>
<path d="M233 156.771L214.5 137.797V123.185L233 141.211V156.771Z" stroke="#145CC5"/>
<path d="M274.5 156.771L256 137.797V123.185L274.5 141.211V156.771Z" stroke="#145CC5"/>
<path d="M316 156.771L297.5 137.797V123.185L316 141.211V156.771Z" stroke="#145CC5"/>
<path d="M357.5 156.771L339 137.797V123.185L357.5 141.211V156.771Z" stroke="#145CC5"/>
<path d="M233 217.771L214.5 198.797V184.185L233 202.211V217.771Z" stroke="#145CC5"/>
<path d="M274.5 217.771L256 198.797V184.185L274.5 202.211V217.771Z" stroke="#145CC5"/>
<path d="M316 217.771L297.5 198.797V184.185L316 202.211V217.771Z" stroke="#145CC5"/>
<path d="M357.5 217.771L339 198.797V184.185L357.5 202.211V217.771Z" stroke="#145CC5"/>
<path d="M233 278.771L214.5 259.797V245.185L233 263.211V278.771Z" stroke="#145CC5"/>
<path d="M274.5 278.771L256 259.797V245.185L274.5 263.211V278.771Z" stroke="#145CC5"/>
<path d="M316 278.771L297.5 259.797V245.185L316 263.211V278.771Z" stroke="#145CC5"/>
<path d="M357.5 278.771L339 259.797V245.185L357.5 263.211V278.771Z" stroke="#145CC5"/>
<path d="M359 64.271L377.5 45.2966V30.6853L359 48.7109V64.271Z" stroke="#145CC5"/>
<path d="M317.5 64.271L336 45.2966V30.6853L317.5 48.7109V64.271Z" stroke="#145CC5"/>
<path d="M276 64.271L294.5 45.2966V30.6853L276 48.7109V64.271Z" stroke="#145CC5"/>
<path d="M234.5 64.271L253 45.2966V30.6853L234.5 48.7109V64.271Z" stroke="#145CC5"/>
<path d="M359 125.271L377.5 106.297V91.6853L359 109.711V125.271Z" stroke="#145CC5"/>
<path d="M317.5 125.271L336 106.297V91.6853L317.5 109.711V125.271Z" stroke="#145CC5"/>
<path d="M276 125.271L294.5 106.297V91.6853L276 109.711V125.271Z" stroke="#145CC5"/>
<path d="M234.5 125.271L253 106.297V91.6853L234.5 109.711V125.271Z" stroke="#145CC5"/>
<path d="M359 186.271L377.5 167.297V152.685L359 170.711V186.271Z" stroke="#145CC5"/>
<path d="M317.5 186.271L336 167.297V152.685L317.5 170.711V186.271Z" stroke="#145CC5"/>
<path d="M276 186.271L294.5 167.297V152.685L276 170.711V186.271Z" stroke="#145CC5"/>
<path d="M234.5 186.271L253 167.297V152.685L234.5 170.711V186.271Z" stroke="#145CC5"/>
<path d="M359 247.271L377.5 228.297V213.685L359 231.711V247.271Z" stroke="#145CC5"/>
<path d="M317.5 247.271L336 228.297V213.685L317.5 231.711V247.271Z" stroke="#145CC5"/>
<path d="M276 247.271L294.5 228.297V213.685L276 231.711V247.271Z" stroke="#145CC5"/>
<path d="M234.5 247.271L253 228.297V213.685L234.5 231.711V247.271Z" stroke="#145CC5"/>
<path d="M359 308.271L377.5 289.297V274.685L359 292.711V308.271Z" stroke="#145CC5"/>
<path d="M317.5 308.271L336 289.297V274.685L317.5 292.711V308.271Z" stroke="#145CC5"/>
<path d="M276 308.271L294.5 289.297V274.685L276 292.711V308.271Z" stroke="#145CC5"/>
<path d="M234.5 308.271L253 289.297V274.685L234.5 292.711V308.271Z" stroke="#145CC5"/>
</svg>
